<?xml version="1.0" encoding="UTF-8"?>
<svg id="Layer_4" data-name="Layer 4" xmlns="http://www.w3.org/2000/svg" xmlns:xlink="http://www.w3.org/1999/xlink" viewBox="0 0 300 300">
  <defs>
    <style>
      .cls-1 {
        clip-path: url(#clippath);
      }

      .cls-2 {
        fill: none;
      }

      .cls-2, .cls-3 {
        stroke: #000;
        stroke-miterlimit: 10;
        stroke-width: 5px;
      }

      .cls-3 {
        fill: #f68740;
      }
    </style>
    <clipPath id="clippath">
      <circle class="cls-2" cx="150" cy="150" r="125"/>
    </clipPath>
  </defs>
  <g class="cls-1">
    <circle class="cls-3" cx="150" cy="150" r="125"/>
    <line class="cls-2" x1="151.53" y1="12.28" x2="151.53" y2="289.04"/>
    <line class="cls-2" x1="289.91" y1="149.49" x2="13.15" y2="149.49"/>
    <path class="cls-2" d="m32.19,40.11c12.77,13.53,31.33,21.16,45.55,28.4,29.58,15.06,49.95,45.7,49.6,79.94-.32,31.7-21.59,57.75-44.68,75.43-15.75,12.06-25.96,21.25-40.77,37.59"/>
    <path class="cls-2" d="m271.62,38.81c-12.77,13.53-31.33,21.16-45.55,28.4-29.58,15.06-49.95,45.7-49.6,79.94.32,31.7,21.59,57.75,44.68,75.43,15.75,12.06,25.96,21.25,40.77,37.59"/>
  </g>
  <circle class="cls-2" cx="150" cy="150" r="125"/>
</svg>