<?xml version="1.0" encoding="UTF-8"?>
<svg id="Layer_1" data-name="Layer 1" xmlns="http://www.w3.org/2000/svg" xmlns:xlink="http://www.w3.org/1999/xlink" viewBox="0 0 300 300">
  <defs>
    <style>
      .cls-1 {
        fill: #231f20;
        stroke-width: .98px;
      }

      .cls-1, .cls-2, .cls-3, .cls-4 {
        stroke: #231f20;
        stroke-miterlimit: 10;
      }

      .cls-2, .cls-3, .cls-4 {
        stroke-width: 5px;
      }

      .cls-2, .cls-5 {
        fill: none;
      }

      .cls-3 {
        fill: #fff;
      }

      .cls-6 {
        clip-path: url(#clippath);
      }

      .cls-4 {
        fill: #f68740;
      }
    </style>
    <clipPath id="clippath">
      <circle class="cls-5" cx="150" cy="150" r="125"/>
    </clipPath>
  </defs>
  <circle class="cls-3" cx="150" cy="150" r="125"/>
  <line class="cls-2" x1="150.92" y1="33.77" x2="151.03" y2="140.9"/>
  <line class="cls-2" x1="260.72" y1="112.59" x2="159.72" y2="148.29"/>
  <line class="cls-2" x1="39.16" y1="114.56" x2="141.36" y2="146.67"/>
  <line class="cls-2" x1="222.63" y1="242.98" x2="155.65" y2="159.37"/>
  <line class="cls-2" x1="81.4" y1="244.89" x2="144.22" y2="158.11"/>
  <polygon class="cls-4" points="150 104.57 106.28 136.34 122.98 187.74 177.02 187.74 193.72 136.34 150 104.57"/>
  <g class="cls-6">
    <polygon class="cls-1" points="123.88 -22.89 107.18 28.51 150.9 60.28 194.62 28.51 177.92 -22.89 123.88 -22.89"/>
    <polygon class="cls-1" points="305.18 68.26 251.15 69.59 235.72 121.38 280.2 152.07 323.14 119.24 305.18 68.26"/>
    <polygon class="cls-1" points="-23.01 123.31 20.99 154.69 64.43 122.55 47.28 71.29 -6.76 71.77 -23.01 123.31"/>
    <polygon class="cls-1" points="279.13 270.35 260.08 219.77 206.09 222.26 191.78 274.38 236.92 304.1 279.13 270.35"/>
    <polygon class="cls-1" points="70.02 306.63 113.72 274.83 96.98 223.44 42.94 223.48 26.27 274.89 70.02 306.63"/>
  </g>
</svg>