<?xml version="1.0" encoding="UTF-8"?>
<svg id="Layer_2" data-name="Layer 2" xmlns="http://www.w3.org/2000/svg" xmlns:xlink="http://www.w3.org/1999/xlink" viewBox="0 0 300 300">
  <defs>
    <style>
      .cls-1 {
        fill: #fff;
      }

      .cls-2 {
        stroke-width: 5px;
      }

      .cls-2, .cls-3, .cls-4 {
        fill: none;
        stroke: #231f20;
        stroke-miterlimit: 10;
      }

      .cls-3 {
        stroke-width: 2px;
      }

      .cls-5 {
        clip-path: url(#clippath);
      }

      .cls-4 {
        stroke-width: 4px;
      }

      .cls-6 {
        fill: #f68740;
      }
    </style>
    <clipPath id="clippath">
      <circle class="cls-2" cx="150" cy="150" r="125"/>
    </clipPath>
  </defs>
  <g class="cls-5">
    <g>
      <g>
        <path class="cls-1" d="m165.62,61.1h-.02c-12.12-3.13-40.57-2.67-73.15,6.84-26.71,7.79-45.34,20.91-56.73,31.34C55.17,55.52,99.02,25,150,25c.56,0,1.11,0,1.67.01,4.97,8.66,10.67,20.93,13.95,36.09Z"/>
        <path class="cls-6" d="m275,150c0,23.36-6.41,45.23-17.57,63.94-9.99-.02-23.47-1.22-38.25-5.97v-.02c8.78-8.92,22.61-33.79,30.67-66.76,6.59-26.99,4.55-49.66,1.23-64.74,15.04,20.63,23.92,46.06,23.92,73.55Z"/>
        <path class="cls-1" d="m251.08,76.45c3.32,15.08,5.36,37.75-1.23,64.74-8.06,32.97-21.89,57.84-30.66,66.76v.02c-8.35-2.66-17.09-6.46-25.86-11.81-4.95-3.02-9.42-6.26-13.46-9.61l.02-.03c8.28-6.66,23.31-26.21,31.37-63.78,7.51-35.02-1.89-67.69-9.81-86.7,19.85,8.98,36.94,22.99,49.63,40.41Z"/>
        <path class="cls-1" d="m257.43,213.94c-8.8,14.77-20.57,27.57-34.49,37.58-20.43-2.64-53.41-10.84-79.97-34.84-28.5-25.76-37.92-48.55-39.54-59.05v-.04c19.73-7.35,37.27-7.78,46.57-7.59,4.49,8.15,13.63,23.12,29.87,36.55,4.04,3.35,8.51,6.59,13.46,9.61,8.77,5.35,17.51,9.15,25.85,11.81,14.78,4.75,28.26,5.95,38.25,5.97Z"/>
        <path class="cls-6" d="m201.45,36.04c7.92,19.01,17.32,51.68,9.81,86.7-8.06,37.57-23.09,57.12-31.37,63.78l-.02.03c-16.24-13.43-25.38-28.4-29.87-36.55,4.82-7.96,13.21-23.37,16.72-44.14.88-5.16,1.45-10.66,1.59-16.46.25-10.27-.84-19.75-2.69-28.3-3.28-15.16-8.98-27.43-13.95-36.09,17.72.23,34.56,4.15,49.77,11.03h.01Z"/>
        <path class="cls-6" d="m165.62,61.1c1.85,8.55,2.94,18.03,2.69,28.3-.14,5.8-.71,11.3-1.59,16.46h-.04c-9.91-3.85-34.36-7.09-70.91,4.71-34.07,11-57.66,35.46-70.16,51.83-.4-4.08-.61-8.21-.61-12.4,0-18.06,3.83-35.22,10.72-50.72,11.39-10.43,30.02-23.55,56.73-31.34,32.58-9.51,61.03-9.97,73.15-6.83h.02Z"/>
        <path class="cls-1" d="m166.68,105.85h.04c-3.51,20.78-11.9,36.19-16.72,44.15-9.3-.19-26.84.24-46.58,7.59-4.92,1.82-9.97,4.08-15.06,6.86-9.01,4.92-16.68,10.59-23.16,16.47-11.5,10.43-19.28,21.51-24.29,30.15-8.22-14.65-13.58-31.13-15.3-48.67,12.5-16.37,36.09-40.83,70.16-51.83,36.55-11.8,61-8.56,70.91-4.72Z"/>
        <path class="cls-6" d="m222.94,251.52c-17.18,12.37-37.63,20.48-59.81,22.79-14.72-4.67-35.36-14.24-55.42-33.44-24.53-23.46-39.15-47.87-42.49-59.93l-.02-.02c6.48-5.88,14.15-11.55,23.16-16.47,5.09-2.78,10.14-5.04,15.06-6.86v.04c1.63,10.5,11.05,33.29,39.55,59.05,26.56,24,59.54,32.2,79.97,34.84Z"/>
        <path class="cls-1" d="m163.13,274.31c-4.31.46-8.69.69-13.13.69-46.86,0-87.69-25.78-109.09-63.93,5.01-8.64,12.79-19.72,24.29-30.15l.02.02c3.34,12.06,17.96,36.47,42.49,59.93,20.06,19.2,40.7,28.77,55.42,33.44Z"/>
      </g>
      <g>
        <path class="cls-2" d="m201.45,36.04c19.85,8.98,36.94,22.99,49.63,40.41,15.04,20.63,23.92,46.06,23.92,73.55,0,23.36-6.41,45.23-17.57,63.94-8.8,14.77-20.57,27.57-34.49,37.58-17.18,12.37-37.63,20.48-59.81,22.79-4.31.46-8.69.69-13.13.69-46.86,0-87.69-25.78-109.09-63.93-8.22-14.65-13.58-31.13-15.3-48.67-.4-4.08-.61-8.21-.61-12.4,0-18.06,3.83-35.22,10.72-50.72C55.17,55.52,99.02,25,150,25c.56,0,1.11,0,1.67.01,17.72.23,34.56,4.15,49.77,11.03"/>
        <path class="cls-4" d="m150,150c-9.3-.19-26.84.24-46.58,7.59-4.92,1.82-9.97,4.08-15.06,6.86-9.01,4.92-16.68,10.59-23.16,16.47-11.5,10.43-19.28,21.51-24.29,30.15-2.96,5.09-4.95,9.33-6.17,12.1"/>
        <path class="cls-4" d="m150,150c4.49,8.15,13.63,23.12,29.87,36.55,4.04,3.35,8.51,6.59,13.46,9.61,8.77,5.35,17.51,9.15,25.85,11.81,14.78,4.75,28.26,5.95,38.25,5.97,5.88.01,10.55-.38,13.56-.71"/>
        <path class="cls-4" d="m150,150c4.82-7.96,13.21-23.37,16.72-44.14.88-5.16,1.45-10.66,1.59-16.46.25-10.27-.84-19.75-2.69-28.3-3.28-15.16-8.98-27.43-13.95-36.09-2.94-5.11-5.62-8.96-7.41-11.41"/>
        <path class="cls-3" d="m166.68,105.85c-9.91-3.84-34.36-7.08-70.91,4.72-34.07,11-57.66,35.46-70.16,51.83-5.49,7.19-8.84,12.82-10.01,15.07"/>
        <path class="cls-3" d="m165.6,61.11c-12.12-3.14-40.57-2.68-73.15,6.83-26.71,7.79-45.34,20.91-56.73,31.34-4.84,4.42-8.38,8.37-10.68,11.21"/>
        <path class="cls-3" d="m103.43,157.63c1.62,10.5,11.04,33.29,39.54,59.05,26.56,24,59.54,32.2,79.97,34.84,8.96,1.16,15.52,1.25,18.05,1.14"/>
        <path class="cls-3" d="m65.22,180.94c3.34,12.06,17.96,36.47,42.49,59.93,20.06,19.2,40.7,28.77,55.42,33.44,6.29,2,11.5,3.09,15.13,3.66"/>
        <path class="cls-3" d="m179.89,186.52c8.28-6.66,23.31-26.21,31.37-63.78,7.51-35.02-1.89-67.69-9.81-86.7h-.01c-3.47-8.33-6.66-14.04-8.03-16.17"/>
        <path class="cls-3" d="m219.19,207.95c8.77-8.92,22.6-33.79,30.66-66.76,6.59-26.99,4.55-49.66,1.23-64.74-1.41-6.43-3.06-11.49-4.38-14.91"/>
      </g>
    </g>
  </g>
  <circle class="cls-2" cx="150" cy="150" r="125"/>
</svg>